<svg xmlns="http://www.w3.org/2000/svg" width="1024" height="1024" viewBox="0 0 1024 1024"><defs><linearGradient id="gEgeo" x1="0%" y1="0%" x2="100%" y2="100%"><stop offset="0%" stop-color="#0B3B4D"/><stop offset="100%" stop-color="#128099"/></linearGradient></defs><rect width="1024" height="1024" fill="url(#gEgeo)"/><path transform="translate(0.00,-6.34) scale(1.00000)" d="M 474.93 262.34 A 64.00 64.00 0 0 1 549.07 262.34 L 796.64 438.25 A 46.00 46.00 0 0 1 816.00 475.75 L 816.00 704.00 A 68.00 68.00 0 0 1 748.00 772.00 L 276.00 772.00 A 68.00 68.00 0 0 1 208.00 704.00 L 208.00 475.75 A 46.00 46.00 0 0 1 227.36 438.25 Z M 328.00 584.00 L 368.00 584.00 A 30.00 30.00 0 0 1 398.00 614.00 L 398.00 670.00 A 30.00 30.00 0 0 1 368.00 700.00 L 328.00 700.00 A 30.00 30.00 0 0 1 298.00 670.00 L 298.00 614.00 A 30.00 30.00 0 0 1 328.00 584.00 Z M 492.00 518.00 L 532.00 518.00 A 30.00 30.00 0 0 1 562.00 548.00 L 562.00 670.00 A 30.00 30.00 0 0 1 532.00 700.00 L 492.00 700.00 A 30.00 30.00 0 0 1 462.00 670.00 L 462.00 548.00 A 30.00 30.00 0 0 1 492.00 518.00 Z M 656.00 452.00 L 696.00 452.00 A 30.00 30.00 0 0 1 726.00 482.00 L 726.00 670.00 A 30.00 30.00 0 0 1 696.00 700.00 L 656.00 700.00 A 30.00 30.00 0 0 1 626.00 670.00 L 626.00 482.00 A 30.00 30.00 0 0 1 656.00 452.00 Z" fill="#FFFFFF" fill-rule="evenodd"/></svg>