<svg xmlns="http://www.w3.org/2000/svg" width="1024" height="1024" viewBox="0 0 1024 1024"><defs><linearGradient id="gEgeo" x1="0%" y1="0%" x2="100%" y2="100%"><stop offset="0%" stop-color="#0B3B4D"/><stop offset="100%" stop-color="#128099"/></linearGradient></defs><rect width="1024" height="1024" fill="url(#gEgeo)"/><path transform="translate(0.00,-6.34)" d="M 474.93 262.34 A 64.00 64.00 0 0 1 549.07 262.34 L 796.64 438.25 A 46.00 46.00 0 0 1 816.00 475.75 L 816.00 704.00 A 68.00 68.00 0 0 1 748.00 772.00 L 276.00 772.00 A 68.00 68.00 0 0 1 208.00 704.00 L 208.00 475.75 A 46.00 46.00 0 0 1 227.36 438.25 Z M 332.00 578.00 L 414.00 578.00 A 34.00 34.00 0 0 1 448.00 612.00 L 448.00 666.00 A 34.00 34.00 0 0 1 414.00 700.00 L 332.00 700.00 A 34.00 34.00 0 0 1 298.00 666.00 L 298.00 612.00 A 34.00 34.00 0 0 1 332.00 578.00 Z M 610.00 478.00 L 692.00 478.00 A 34.00 34.00 0 0 1 726.00 512.00 L 726.00 666.00 A 34.00 34.00 0 0 1 692.00 700.00 L 610.00 700.00 A 34.00 34.00 0 0 1 576.00 666.00 L 576.00 512.00 A 34.00 34.00 0 0 1 610.00 478.00 Z" fill="#FFFFFF" fill-rule="evenodd"/></svg>