<svg xmlns="http://www.w3.org/2000/svg" width="750" height="877" viewBox="0 0 750 877"><defs></defs><path transform="translate(-26.03,-94.93) scale(0.78358)" d="M 474.93 262.34 A 64.00 64.00 0 0 1 549.07 262.34 L 796.64 438.25 A 46.00 46.00 0 0 1 816.00 475.75 L 816.00 704.00 A 68.00 68.00 0 0 1 748.00 772.00 L 276.00 772.00 A 68.00 68.00 0 0 1 208.00 704.00 L 208.00 475.75 A 46.00 46.00 0 0 1 227.36 438.25 Z M 328.00 584.00 L 368.00 584.00 A 30.00 30.00 0 0 1 398.00 614.00 L 398.00 670.00 A 30.00 30.00 0 0 1 368.00 700.00 L 328.00 700.00 A 30.00 30.00 0 0 1 298.00 670.00 L 298.00 614.00 A 30.00 30.00 0 0 1 328.00 584.00 Z M 492.00 518.00 L 532.00 518.00 A 30.00 30.00 0 0 1 562.00 548.00 L 562.00 670.00 A 30.00 30.00 0 0 1 532.00 700.00 L 492.00 700.00 A 30.00 30.00 0 0 1 462.00 670.00 L 462.00 548.00 A 30.00 30.00 0 0 1 492.00 518.00 Z M 656.00 452.00 L 696.00 452.00 A 30.00 30.00 0 0 1 726.00 482.00 L 726.00 670.00 A 30.00 30.00 0 0 1 696.00 700.00 L 656.00 700.00 A 30.00 30.00 0 0 1 626.00 670.00 L 626.00 482.00 A 30.00 30.00 0 0 1 656.00 452.00 Z" fill="#0F566E" fill-rule="evenodd"/><g transform="translate(90.00,787.20) scale(0.214164)"><path d="M405.0 12Q325.0 12 257.5 -16.0Q190.0 -44 139.0 -94.0Q88.0 -144 60.0 -210.5Q32.0 -277 32.0 -354Q32.0 -432 60.0 -498.0Q88.0 -564 138.0 -613.5Q188.0 -663 255.5 -690.5Q323.0 -718 403.0 -718Q482.0 -718 549.5 -690.5Q617.0 -663 667.5 -613.5Q718.0 -564 746.0 -497.5Q774.0 -431 774.0 -353Q774.0 -276 746.0 -209.5Q718.0 -143 668.0 -93.5Q618.0 -44 550.5 -16.0Q483.0 12 405.0 12ZM403.0 -131Q466.0 -131 513.5 -159.0Q561.0 -187 587.0 -237.5Q613.0 -288 613.0 -354Q613.0 -404 598.0 -444.5Q583.0 -485 555.0 -514.5Q527.0 -544 488.5 -559.5Q450.0 -575 403.0 -575Q340.0 -575 292.5 -547.5Q245.0 -520 219.0 -470.5Q193.0 -421 193.0 -354Q193.0 -304 208.0 -263.0Q223.0 -222 250.5 -192.5Q278.0 -163 317.0 -147.0Q356.0 -131 403.0 -131Z M864.0 0V-486H1017.0V0ZM941.0 -553Q905.0 -553 881.5 -577.5Q858.0 -602 858.0 -637Q858.0 -673 881.5 -697.0Q905.0 -721 941.0 -721Q977.0 -721 1000.0 -697.0Q1023.0 -673 1023.0 -637Q1023.0 -602 1000.0 -577.5Q977.0 -553 941.0 -553Z M1440.0 0 1270.0 -252 1439.0 -486H1610.0L1406.0 -223L1411.0 -286L1620.0 0ZM1129.0 0V-726H1282.0V0Z M1913.0 11Q1838.0 11 1777.5 -22.5Q1717.0 -56 1682.0 -114.0Q1647.0 -172 1647.0 -244Q1647.0 -316 1682.0 -373.0Q1717.0 -430 1777.0 -463.5Q1837.0 -497 1913.0 -497Q1989.0 -497 2049.0 -464.0Q2109.0 -431 2144.0 -373.5Q2179.0 -316 2179.0 -244Q2179.0 -172 2144.0 -114.0Q2109.0 -56 2049.0 -22.5Q1989.0 11 1913.0 11ZM1913.0 -128Q1946.0 -128 1971.0 -142.5Q1996.0 -157 2009.5 -183.5Q2023.0 -210 2023.0 -244Q2023.0 -278 2009.0 -303.5Q1995.0 -329 1970.5 -343.5Q1946.0 -358 1913.0 -358Q1881.0 -358 1856.0 -343.5Q1831.0 -329 1817.0 -303.0Q1803.0 -277 1803.0 -243Q1803.0 -210 1817.0 -183.5Q1831.0 -157 1856.0 -142.5Q1881.0 -128 1913.0 -128Z M2436.0 12Q2393.0 12 2351.5 1.0Q2310.0 -10 2274.5 -30.5Q2239.0 -51 2214.0 -78L2301.0 -166Q2325.0 -140 2358.0 -125.5Q2391.0 -111 2430.0 -111Q2457.0 -111 2471.5 -119.0Q2486.0 -127 2486.0 -141Q2486.0 -159 2468.5 -168.5Q2451.0 -178 2424.0 -185.5Q2397.0 -193 2367.0 -202.0Q2337.0 -211 2310.0 -227.0Q2283.0 -243 2266.0 -271.5Q2249.0 -300 2249.0 -344Q2249.0 -391 2273.0 -425.5Q2297.0 -460 2341.0 -480.0Q2385.0 -500 2444.0 -500Q2506.0 -500 2558.5 -478.5Q2611.0 -457 2644.0 -415L2557.0 -327Q2534.0 -354 2505.5 -365.0Q2477.0 -376 2450.0 -376Q2424.0 -376 2411.0 -368.5Q2398.0 -361 2398.0 -347Q2398.0 -332 2415.0 -323.0Q2432.0 -314 2459.0 -307.0Q2486.0 -300 2516.0 -290.0Q2546.0 -280 2573.0 -263.0Q2600.0 -246 2617.0 -217.5Q2634.0 -189 2634.0 -143Q2634.0 -72 2580.5 -30.0Q2527.0 12 2436.0 12Z" fill="#13242C"/></g></svg>